<mxfile host="app.diagrams.net" modified="2024-03-26T09:02:00.863Z" agent="Mozilla/5.0 (Windows NT 10.0; Win64; x64) AppleWebKit/537.36 (KHTML, like Gecko) Chrome/123.0.0.0 Safari/537.36" etag="keBOVqFw4hohbJO3SuZR" version="24.1.0" type="github">
  <diagram id="C5RBs43oDa-KdzZeNtuy" name="Page-1">
    <mxGraphModel dx="1285" dy="640" grid="1" gridSize="10" guides="1" tooltips="1" connect="1" arrows="1" fold="1" page="1" pageScale="1" pageWidth="827" pageHeight="1169" math="0" shadow="0">
      <root>
        <mxCell id="WIyWlLk6GJQsqaUBKTNV-0" />
        <mxCell id="WIyWlLk6GJQsqaUBKTNV-1" parent="WIyWlLk6GJQsqaUBKTNV-0" />
        <mxCell id="FBv05t-RvcUnP1pZzhg--0" value="&lt;p style=&quot;margin:0px;margin-top:6px;text-align:center;&quot;&gt;&lt;b&gt;MemberInfo&lt;/b&gt;&lt;/p&gt;&lt;hr size=&quot;1&quot; style=&quot;border-style:solid;&quot;&gt;&lt;p style=&quot;margin:0px;margin-left:8px;&quot;&gt;+ Belonging: UnionInfo*&lt;/p&gt;&lt;p style=&quot;margin:0px;margin-left:8px;&quot;&gt;+ Tit&lt;span style=&quot;background-color: initial;&quot;&gt;le:Enum&lt;/span&gt;&lt;span style=&quot;background-color: initial; white-space: pre;&quot;&gt;&#x9;&lt;/span&gt;&lt;/p&gt;&lt;p style=&quot;margin:0px;margin-left:8px;&quot;&gt;+ Absent Time: int32&lt;/p&gt;&lt;p style=&quot;margin:0px;margin-left:8px;&quot;&gt;+CoolDownTime: int32&lt;/p&gt;&lt;p style=&quot;margin:0px;margin-left:8px;&quot;&gt;...&lt;/p&gt;" style="align=left;overflow=fill;html=1;dropTarget=0;whiteSpace=wrap;" parent="WIyWlLk6GJQsqaUBKTNV-1" vertex="1">
          <mxGeometry x="640" y="810" width="180" height="120" as="geometry" />
        </mxCell>
        <mxCell id="FBv05t-RvcUnP1pZzhg--1" value="" style="shape=component;jettyWidth=8;jettyHeight=4;" parent="FBv05t-RvcUnP1pZzhg--0" vertex="1">
          <mxGeometry x="1" width="20" height="20" relative="1" as="geometry">
            <mxPoint x="-24" y="4" as="offset" />
          </mxGeometry>
        </mxCell>
        <mxCell id="FBv05t-RvcUnP1pZzhg--29" style="edgeStyle=orthogonalEdgeStyle;rounded=0;orthogonalLoop=1;jettySize=auto;html=1;endArrow=block;endFill=0;" parent="WIyWlLk6GJQsqaUBKTNV-1" source="FBv05t-RvcUnP1pZzhg--2" target="FBv05t-RvcUnP1pZzhg--10" edge="1">
          <mxGeometry relative="1" as="geometry">
            <Array as="points">
              <mxPoint x="530" y="770" />
              <mxPoint x="630" y="770" />
            </Array>
          </mxGeometry>
        </mxCell>
        <mxCell id="FBv05t-RvcUnP1pZzhg--2" value="&lt;p style=&quot;margin:0px;margin-top:6px;text-align:center;&quot;&gt;&lt;b&gt;MemberWarInfo&lt;/b&gt;&lt;/p&gt;&lt;hr size=&quot;1&quot; style=&quot;border-style:solid;&quot;&gt;&lt;p style=&quot;margin:0px;margin-left:8px;&quot;&gt;&lt;span style=&quot;background-color: initial;&quot;&gt;+ CrusadePoint: int32&lt;/span&gt;&lt;span style=&quot;background-color: initial; white-space: pre;&quot;&gt;&#x9;&lt;/span&gt;&lt;br&gt;&lt;/p&gt;&lt;p style=&quot;margin:0px;margin-left:8px;&quot;&gt;+ Knives: int32&lt;/p&gt;&lt;p style=&quot;margin:0px;margin-left:8px;&quot;&gt;+ CompensationKnife: int32&lt;/p&gt;&lt;p style=&quot;margin:0px;margin-left:8px;&quot;&gt;...&lt;/p&gt;&lt;p style=&quot;margin:0px;margin-left:8px;&quot;&gt;&lt;br&gt;&lt;/p&gt;" style="align=left;overflow=fill;html=1;dropTarget=0;whiteSpace=wrap;" parent="WIyWlLk6GJQsqaUBKTNV-1" vertex="1">
          <mxGeometry x="440" y="810" width="180" height="130" as="geometry" />
        </mxCell>
        <mxCell id="FBv05t-RvcUnP1pZzhg--3" value="" style="shape=component;jettyWidth=8;jettyHeight=4;" parent="FBv05t-RvcUnP1pZzhg--2" vertex="1">
          <mxGeometry x="1" width="20" height="20" relative="1" as="geometry">
            <mxPoint x="-24" y="4" as="offset" />
          </mxGeometry>
        </mxCell>
        <mxCell id="FBv05t-RvcUnP1pZzhg--4" value="&lt;p style=&quot;margin:0px;margin-top:6px;text-align:center;&quot;&gt;&lt;b&gt;UnionInfo&lt;/b&gt;&lt;/p&gt;&lt;hr size=&quot;1&quot; style=&quot;border-style:solid;&quot;&gt;&lt;p style=&quot;margin:0px;margin-left:8px;&quot;&gt;+ Name&lt;span style=&quot;background-color: initial;&quot;&gt;: string&lt;/span&gt;&lt;span style=&quot;background-color: initial; white-space: pre;&quot;&gt;&#x9;&lt;/span&gt;&lt;/p&gt;&lt;p style=&quot;margin:0px;margin-left:8px;&quot;&gt;+ Rank: int32&lt;/p&gt;&lt;p style=&quot;margin:0px;margin-left:8px;&quot;&gt;+ isDespensible: Boolean&lt;/p&gt;&lt;p style=&quot;margin:0px;margin-left:8px;&quot;&gt;+ isJoinable: Boolean&lt;/p&gt;&lt;p style=&quot;margin:0px;margin-left:8px;&quot;&gt;+ membersInfo: MemberInfo* []&lt;/p&gt;&lt;p style=&quot;margin:0px;margin-left:8px;&quot;&gt;...&lt;/p&gt;&lt;p style=&quot;margin:0px;margin-left:8px;&quot;&gt;&lt;br&gt;&lt;/p&gt;&lt;p style=&quot;margin:0px;margin-left:8px;&quot;&gt;&lt;br&gt;&lt;/p&gt;&lt;p style=&quot;margin:0px;margin-left:8px;&quot;&gt;&lt;br&gt;&lt;/p&gt;" style="align=left;overflow=fill;html=1;dropTarget=0;whiteSpace=wrap;" parent="WIyWlLk6GJQsqaUBKTNV-1" vertex="1">
          <mxGeometry x="30" y="810" width="180" height="130" as="geometry" />
        </mxCell>
        <mxCell id="FBv05t-RvcUnP1pZzhg--5" value="" style="shape=component;jettyWidth=8;jettyHeight=4;" parent="FBv05t-RvcUnP1pZzhg--4" vertex="1">
          <mxGeometry x="1" width="20" height="20" relative="1" as="geometry">
            <mxPoint x="-24" y="4" as="offset" />
          </mxGeometry>
        </mxCell>
        <mxCell id="FBv05t-RvcUnP1pZzhg--6" value="&lt;p style=&quot;margin:0px;margin-top:6px;text-align:center;&quot;&gt;&lt;b&gt;UnionWarInfo&lt;/b&gt;&lt;/p&gt;&lt;hr size=&quot;1&quot; style=&quot;border-style:solid;&quot;&gt;&lt;p style=&quot;margin:0px;margin-left:8px;&quot;&gt;&lt;span style=&quot;background-color: initial;&quot;&gt;+ roundPassCount&lt;/span&gt;&lt;span style=&quot;background-color: initial;&quot;&gt;: int32&lt;/span&gt;&lt;span style=&quot;background-color: initial; white-space: pre;&quot;&gt;&#x9;&lt;/span&gt;&lt;br&gt;&lt;/p&gt;&lt;p style=&quot;margin:0px;margin-left:8px;&quot;&gt;+ gameStage: int32&lt;/p&gt;&lt;p style=&quot;margin:0px;margin-left:8px;&quot;&gt;+ currentBossIndex: int32&lt;/p&gt;&lt;p style=&quot;margin:0px;margin-left:8px;&quot;&gt;+ currentBossIndex: int32&lt;/p&gt;&lt;p style=&quot;margin:0px;margin-left:8px;&quot;&gt;+ occupied: Boolean&lt;/p&gt;&lt;p style=&quot;margin:0px;margin-left:8px;&quot;&gt;+ damageSum: int32&lt;/p&gt;&lt;p style=&quot;margin:0px;margin-left:8px;&quot;&gt;&lt;br&gt;&lt;/p&gt;&lt;p style=&quot;margin:0px;margin-left:8px;&quot;&gt;&lt;br&gt;&lt;/p&gt;" style="align=left;overflow=fill;html=1;dropTarget=0;whiteSpace=wrap;" parent="WIyWlLk6GJQsqaUBKTNV-1" vertex="1">
          <mxGeometry x="236" y="810" width="180" height="140" as="geometry" />
        </mxCell>
        <mxCell id="FBv05t-RvcUnP1pZzhg--7" value="" style="shape=component;jettyWidth=8;jettyHeight=4;" parent="FBv05t-RvcUnP1pZzhg--6" vertex="1">
          <mxGeometry x="1" width="20" height="20" relative="1" as="geometry">
            <mxPoint x="-24" y="4" as="offset" />
          </mxGeometry>
        </mxCell>
        <mxCell id="FBv05t-RvcUnP1pZzhg--21" style="edgeStyle=orthogonalEdgeStyle;rounded=0;orthogonalLoop=1;jettySize=auto;html=1;exitX=0.5;exitY=1;exitDx=0;exitDy=0;" parent="WIyWlLk6GJQsqaUBKTNV-1" edge="1">
          <mxGeometry relative="1" as="geometry">
            <mxPoint x="350" y="645" as="targetPoint" />
            <mxPoint x="350" y="645" as="sourcePoint" />
          </mxGeometry>
        </mxCell>
        <mxCell id="FBv05t-RvcUnP1pZzhg--59" style="edgeStyle=orthogonalEdgeStyle;rounded=0;orthogonalLoop=1;jettySize=auto;html=1;endArrow=block;endFill=0;" parent="WIyWlLk6GJQsqaUBKTNV-1" source="FBv05t-RvcUnP1pZzhg--10" target="FBv05t-RvcUnP1pZzhg--52" edge="1">
          <mxGeometry relative="1" as="geometry" />
        </mxCell>
        <mxCell id="FBv05t-RvcUnP1pZzhg--10" value="&lt;p style=&quot;margin:0px;margin-top:6px;text-align:center;&quot;&gt;&lt;b&gt;BasicAvatarInfo&lt;/b&gt;&lt;/p&gt;&lt;hr size=&quot;1&quot; style=&quot;border-style:solid;&quot;&gt;&lt;p style=&quot;margin:0px;margin-left:8px;&quot;&gt;&lt;span style=&quot;background-color: initial;&quot;&gt;...&lt;/span&gt;&lt;br&gt;&lt;/p&gt;&lt;p style=&quot;margin:0px;margin-left:8px;&quot;&gt;&lt;br&gt;&lt;/p&gt;" style="align=left;overflow=fill;html=1;dropTarget=0;whiteSpace=wrap;" parent="WIyWlLk6GJQsqaUBKTNV-1" vertex="1">
          <mxGeometry x="540" y="670" width="180" height="60" as="geometry" />
        </mxCell>
        <mxCell id="FBv05t-RvcUnP1pZzhg--11" value="" style="shape=component;jettyWidth=8;jettyHeight=4;" parent="FBv05t-RvcUnP1pZzhg--10" vertex="1">
          <mxGeometry x="1" width="20" height="20" relative="1" as="geometry">
            <mxPoint x="-24" y="4" as="offset" />
          </mxGeometry>
        </mxCell>
        <mxCell id="FBv05t-RvcUnP1pZzhg--58" style="edgeStyle=orthogonalEdgeStyle;rounded=0;orthogonalLoop=1;jettySize=auto;html=1;endArrow=block;endFill=0;" parent="WIyWlLk6GJQsqaUBKTNV-1" source="FBv05t-RvcUnP1pZzhg--12" target="FBv05t-RvcUnP1pZzhg--52" edge="1">
          <mxGeometry relative="1" as="geometry" />
        </mxCell>
        <mxCell id="FBv05t-RvcUnP1pZzhg--12" value="&lt;p style=&quot;margin:0px;margin-top:6px;text-align:center;&quot;&gt;&lt;b&gt;BasicUnionInfo&lt;/b&gt;&lt;/p&gt;&lt;hr size=&quot;1&quot; style=&quot;border-style:solid;&quot;&gt;&lt;p style=&quot;margin:0px;margin-left:8px;&quot;&gt;&lt;span style=&quot;background-color: initial;&quot;&gt;...&lt;/span&gt;&lt;br&gt;&lt;/p&gt;&lt;p style=&quot;margin:0px;margin-left:8px;&quot;&gt;&lt;br&gt;&lt;/p&gt;" style="align=left;overflow=fill;html=1;dropTarget=0;whiteSpace=wrap;" parent="WIyWlLk6GJQsqaUBKTNV-1" vertex="1">
          <mxGeometry x="130" y="670" width="180" height="60" as="geometry" />
        </mxCell>
        <mxCell id="FBv05t-RvcUnP1pZzhg--13" value="" style="shape=component;jettyWidth=8;jettyHeight=4;" parent="FBv05t-RvcUnP1pZzhg--12" vertex="1">
          <mxGeometry x="1" width="20" height="20" relative="1" as="geometry">
            <mxPoint x="-24" y="4" as="offset" />
          </mxGeometry>
        </mxCell>
        <mxCell id="FBv05t-RvcUnP1pZzhg--16" style="edgeStyle=orthogonalEdgeStyle;rounded=0;orthogonalLoop=1;jettySize=auto;html=1;endArrow=block;endFill=0;" parent="WIyWlLk6GJQsqaUBKTNV-1" source="FBv05t-RvcUnP1pZzhg--4" target="FBv05t-RvcUnP1pZzhg--12" edge="1">
          <mxGeometry relative="1" as="geometry" />
        </mxCell>
        <mxCell id="FBv05t-RvcUnP1pZzhg--19" style="edgeStyle=orthogonalEdgeStyle;rounded=0;orthogonalLoop=1;jettySize=auto;html=1;endArrow=block;endFill=0;" parent="WIyWlLk6GJQsqaUBKTNV-1" source="FBv05t-RvcUnP1pZzhg--6" target="FBv05t-RvcUnP1pZzhg--12" edge="1">
          <mxGeometry relative="1" as="geometry">
            <Array as="points">
              <mxPoint x="330" y="770" />
              <mxPoint x="220" y="770" />
            </Array>
          </mxGeometry>
        </mxCell>
        <mxCell id="FBv05t-RvcUnP1pZzhg--28" style="edgeStyle=orthogonalEdgeStyle;rounded=0;orthogonalLoop=1;jettySize=auto;html=1;endArrow=block;endFill=0;" parent="WIyWlLk6GJQsqaUBKTNV-1" source="FBv05t-RvcUnP1pZzhg--0" target="FBv05t-RvcUnP1pZzhg--10" edge="1">
          <mxGeometry relative="1" as="geometry" />
        </mxCell>
        <mxCell id="FBv05t-RvcUnP1pZzhg--34" value="UnionWar_Activity" style="swimlane;fontStyle=1;align=center;verticalAlign=top;childLayout=stackLayout;horizontal=1;startSize=26;horizontalStack=0;resizeParent=1;resizeParentMax=0;resizeLast=0;collapsible=1;marginBottom=0;whiteSpace=wrap;html=1;" parent="WIyWlLk6GJQsqaUBKTNV-1" vertex="1">
          <mxGeometry x="22" y="200" width="316" height="160" as="geometry" />
        </mxCell>
        <mxCell id="FBv05t-RvcUnP1pZzhg--35" value="- activityInfo: ActivityInfo" style="text;strokeColor=none;fillColor=none;align=left;verticalAlign=top;spacingLeft=4;spacingRight=4;overflow=hidden;rotatable=0;points=[[0,0.5],[1,0.5]];portConstraint=eastwest;whiteSpace=wrap;html=1;" parent="FBv05t-RvcUnP1pZzhg--34" vertex="1">
          <mxGeometry y="26" width="316" height="26" as="geometry" />
        </mxCell>
        <mxCell id="FBv05t-RvcUnP1pZzhg--36" value="" style="line;strokeWidth=1;fillColor=none;align=left;verticalAlign=middle;spacingTop=-1;spacingLeft=3;spacingRight=3;rotatable=0;labelPosition=right;points=[];portConstraint=eastwest;strokeColor=inherit;" parent="FBv05t-RvcUnP1pZzhg--34" vertex="1">
          <mxGeometry y="52" width="316" height="8" as="geometry" />
        </mxCell>
        <mxCell id="FBv05t-RvcUnP1pZzhg--37" value="- UpdateBossStatus(): Boolean&lt;div&gt;- UpdateUnionWarStatus(): void&lt;/div&gt;&lt;div&gt;+ Validate(MemberWarInfo...): Boolean&lt;br&gt;&lt;div&gt;+ StartBattle(UnionWarInfo, MemberWarInfo): Boolean&lt;/div&gt;&lt;div&gt;&lt;span style=&quot;background-color: initial;&quot;&gt;+ NextBattle(): void&lt;/span&gt;&lt;/div&gt;&lt;div&gt;&lt;span style=&quot;background-color: initial;&quot;&gt;- Settlement(): void&lt;/span&gt;&lt;/div&gt;&lt;div&gt;&lt;span style=&quot;background-color: initial;&quot;&gt;&lt;br&gt;&lt;/span&gt;&lt;/div&gt;&lt;/div&gt;" style="text;strokeColor=none;fillColor=none;align=left;verticalAlign=top;spacingLeft=4;spacingRight=4;overflow=hidden;rotatable=0;points=[[0,0.5],[1,0.5]];portConstraint=eastwest;whiteSpace=wrap;html=1;" parent="FBv05t-RvcUnP1pZzhg--34" vertex="1">
          <mxGeometry y="60" width="316" height="100" as="geometry" />
        </mxCell>
        <mxCell id="FBv05t-RvcUnP1pZzhg--64" style="edgeStyle=orthogonalEdgeStyle;rounded=0;orthogonalLoop=1;jettySize=auto;html=1;dashed=1;endArrow=block;endFill=0;" parent="WIyWlLk6GJQsqaUBKTNV-1" source="FBv05t-RvcUnP1pZzhg--44" target="FBv05t-RvcUnP1pZzhg--34" edge="1">
          <mxGeometry relative="1" as="geometry" />
        </mxCell>
        <mxCell id="FBv05t-RvcUnP1pZzhg--44" value="&lt;span style=&quot;font-weight: 700;&quot;&gt;&amp;lt;Interface&amp;gt;IActivity&lt;/span&gt;" style="swimlane;fontStyle=0;childLayout=stackLayout;horizontal=1;startSize=26;fillColor=none;horizontalStack=0;resizeParent=1;resizeParentMax=0;resizeLast=0;collapsible=1;marginBottom=0;whiteSpace=wrap;html=1;" parent="WIyWlLk6GJQsqaUBKTNV-1" vertex="1">
          <mxGeometry x="110" y="50" width="140" height="100" as="geometry" />
        </mxCell>
        <mxCell id="FBv05t-RvcUnP1pZzhg--48" value="+ Start(): void&lt;div&gt;+ End(): void&lt;/div&gt;&lt;div&gt;+ Routine(): Boolean&lt;/div&gt;&lt;div&gt;&lt;br&gt;&lt;/div&gt;" style="text;strokeColor=none;fillColor=none;align=left;verticalAlign=top;spacingLeft=4;spacingRight=4;overflow=hidden;rotatable=0;points=[[0,0.5],[1,0.5]];portConstraint=eastwest;whiteSpace=wrap;html=1;" parent="FBv05t-RvcUnP1pZzhg--44" vertex="1">
          <mxGeometry y="26" width="140" height="74" as="geometry" />
        </mxCell>
        <mxCell id="FBv05t-RvcUnP1pZzhg--52" value="&lt;p style=&quot;margin:0px;margin-top:6px;text-align:center;&quot;&gt;&lt;b&gt;BasicInfo&lt;/b&gt;&lt;/p&gt;&lt;hr size=&quot;1&quot; style=&quot;border-style:solid;&quot;&gt;&lt;p style=&quot;margin:0px;margin-left:8px;&quot;&gt;&lt;span style=&quot;background-color: initial;&quot;&gt;...&lt;/span&gt;&lt;br&gt;&lt;/p&gt;&lt;p style=&quot;margin:0px;margin-left:8px;&quot;&gt;&lt;br&gt;&lt;/p&gt;" style="align=left;overflow=fill;html=1;dropTarget=0;whiteSpace=wrap;" parent="WIyWlLk6GJQsqaUBKTNV-1" vertex="1">
          <mxGeometry x="330" y="570" width="180" height="60" as="geometry" />
        </mxCell>
        <mxCell id="FBv05t-RvcUnP1pZzhg--53" value="" style="shape=component;jettyWidth=8;jettyHeight=4;" parent="FBv05t-RvcUnP1pZzhg--52" vertex="1">
          <mxGeometry x="1" width="20" height="20" relative="1" as="geometry">
            <mxPoint x="-24" y="4" as="offset" />
          </mxGeometry>
        </mxCell>
        <mxCell id="FBv05t-RvcUnP1pZzhg--57" style="edgeStyle=orthogonalEdgeStyle;rounded=0;orthogonalLoop=1;jettySize=auto;html=1;endArrow=block;endFill=0;" parent="WIyWlLk6GJQsqaUBKTNV-1" source="FBv05t-RvcUnP1pZzhg--54" target="FBv05t-RvcUnP1pZzhg--52" edge="1">
          <mxGeometry relative="1" as="geometry" />
        </mxCell>
        <mxCell id="FBv05t-RvcUnP1pZzhg--54" value="&lt;p style=&quot;margin:0px;margin-top:6px;text-align:center;&quot;&gt;&lt;b&gt;ActivityInfo&lt;/b&gt;&lt;/p&gt;&lt;hr size=&quot;1&quot; style=&quot;border-style:solid;&quot;&gt;&lt;p style=&quot;margin:0px;margin-left:8px;&quot;&gt;+ StartDate&lt;span style=&quot;background-color: initial; white-space: pre;&quot;&gt;&#x9;&lt;/span&gt;&lt;/p&gt;&lt;p style=&quot;margin:0px;margin-left:8px;&quot;&gt;+ EndDate&lt;/p&gt;&lt;p style=&quot;margin:0px;margin-left:8px;&quot;&gt;+ Rules&lt;/p&gt;" style="align=left;overflow=fill;html=1;dropTarget=0;whiteSpace=wrap;" parent="WIyWlLk6GJQsqaUBKTNV-1" vertex="1">
          <mxGeometry x="330" y="430" width="180" height="90" as="geometry" />
        </mxCell>
        <mxCell id="FBv05t-RvcUnP1pZzhg--55" value="" style="shape=component;jettyWidth=8;jettyHeight=4;" parent="FBv05t-RvcUnP1pZzhg--54" vertex="1">
          <mxGeometry x="1" width="20" height="20" relative="1" as="geometry">
            <mxPoint x="-24" y="4" as="offset" />
          </mxGeometry>
        </mxCell>
        <mxCell id="FBv05t-RvcUnP1pZzhg--67" value="Text" style="text;html=1;align=center;verticalAlign=middle;resizable=0;points=[];autosize=1;strokeColor=none;fillColor=none;" parent="WIyWlLk6GJQsqaUBKTNV-1" vertex="1">
          <mxGeometry x="1330" y="170" width="50" height="30" as="geometry" />
        </mxCell>
        <mxCell id="o8XUwtPQQc1mgMBpyb5O-0" value="UnionsMnager" style="swimlane;fontStyle=1;align=center;verticalAlign=top;childLayout=stackLayout;horizontal=1;startSize=26;horizontalStack=0;resizeParent=1;resizeParentMax=0;resizeLast=0;collapsible=1;marginBottom=0;whiteSpace=wrap;html=1;" vertex="1" parent="WIyWlLk6GJQsqaUBKTNV-1">
          <mxGeometry x="480" y="50" width="316" height="160" as="geometry" />
        </mxCell>
        <mxCell id="o8XUwtPQQc1mgMBpyb5O-1" value="-unioninfos : UnionInfo*[]" style="text;strokeColor=none;fillColor=none;align=left;verticalAlign=top;spacingLeft=4;spacingRight=4;overflow=hidden;rotatable=0;points=[[0,0.5],[1,0.5]];portConstraint=eastwest;whiteSpace=wrap;html=1;" vertex="1" parent="o8XUwtPQQc1mgMBpyb5O-0">
          <mxGeometry y="26" width="316" height="26" as="geometry" />
        </mxCell>
        <mxCell id="o8XUwtPQQc1mgMBpyb5O-2" value="" style="line;strokeWidth=1;fillColor=none;align=left;verticalAlign=middle;spacingTop=-1;spacingLeft=3;spacingRight=3;rotatable=0;labelPosition=right;points=[];portConstraint=eastwest;strokeColor=inherit;" vertex="1" parent="o8XUwtPQQc1mgMBpyb5O-0">
          <mxGeometry y="52" width="316" height="8" as="geometry" />
        </mxCell>
        <mxCell id="o8XUwtPQQc1mgMBpyb5O-3" value="&lt;div&gt;&lt;div&gt;&lt;span style=&quot;background-color: initial;&quot;&gt;+ DisambleUnion(MemberInfo): Boolean&lt;/span&gt;&lt;/div&gt;&lt;/div&gt;&lt;div&gt;&lt;span style=&quot;background-color: initial;&quot;&gt;+ Search(): Boolean&lt;/span&gt;&lt;/div&gt;&lt;div&gt;&lt;span style=&quot;background-color: initial;&quot;&gt;+ Invite()&lt;/span&gt;&lt;/div&gt;&lt;div&gt;&lt;span style=&quot;background-color: initial;&quot;&gt;+ Kickout()&lt;/span&gt;&lt;/div&gt;&lt;div&gt;&lt;span style=&quot;background-color: initial;&quot;&gt;+ ChangeMode()&lt;/span&gt;&lt;/div&gt;&lt;div&gt;...&lt;/div&gt;" style="text;strokeColor=none;fillColor=none;align=left;verticalAlign=top;spacingLeft=4;spacingRight=4;overflow=hidden;rotatable=0;points=[[0,0.5],[1,0.5]];portConstraint=eastwest;whiteSpace=wrap;html=1;" vertex="1" parent="o8XUwtPQQc1mgMBpyb5O-0">
          <mxGeometry y="60" width="316" height="100" as="geometry" />
        </mxCell>
      </root>
    </mxGraphModel>
  </diagram>
</mxfile>
